HIERARCHY
ROOT Hips
{
    OFFSET 0.0 0.0 0.0
    CHANNELS 6 Xposition Yposition Zposition Zrotation Xrotation Yrotation
    JOINT LeftHipJoint
    {
        OFFSET 0.1 0.0 0.0
        CHANNELS 3 Zrotation Xrotation Yrotation
        JOINT LeftUpLeg
        {
            OFFSET 0.1216195672750473 0.0 0.0
            CHANNELS 3 Zrotation Xrotation Yrotation
            JOINT LeftLeg
            {
                OFFSET 0.0 0.0 -0.4275517165660858
                CHANNELS 3 Zrotation Xrotation Yrotation
                JOINT LeftFoot
                {
                    OFFSET 0.0 0.0 -0.35221046209335327
                    CHANNELS 3 Zrotation Xrotation Yrotation
                    End Site
                    {
                        OFFSET 0.0 -0.1 0.0
                    }
                }
            }
        }
    }
    JOINT LowerBack
    {
        OFFSET 0.0 0.0 0.1
        CHANNELS 3 Zrotation Xrotation Yrotation
        JOINT Spine
        {
            OFFSET 0.0 0.0 0.3192448019981384
            CHANNELS 3 Zrotation Xrotation Yrotation
            JOINT Spine1
            {
                OFFSET 0.0 0.0 0.3138635754585266
                CHANNELS 3 Zrotation Xrotation Yrotation
                JOINT LeftShoulder
                {
                    OFFSET 0.1 0.0 0.0
                    CHANNELS 3 Zrotation Xrotation Yrotation
                    JOINT LeftArm
                    {
                        OFFSET 0.19263990223407745 0.0 0.0
                        CHANNELS 3 Zrotation Xrotation Yrotation
                        JOINT LeftForeArm
                        {
                            OFFSET 0.2706131339073181 0.0 0.0
                            CHANNELS 3 Zrotation Xrotation Yrotation
                            JOINT LeftHand
                            {
                                OFFSET 0.26499998569488525 0.0 0.0
                                CHANNELS 3 Zrotation Xrotation Yrotation
                                End Site
                                {
                                    OFFSET 0.1 0.0 0.0
                                }
                            }
                        }
                    }
                }
                JOINT Neck
                {
                    OFFSET 0.0 0.0 0.1
                    CHANNELS 3 Zrotation Xrotation Yrotation
                    JOINT Neck1
                    {
                        OFFSET 0.0 0.0 0.16722744703292847
                        CHANNELS 3 Zrotation Xrotation Yrotation
                        End Site
                        {
                            OFFSET 0.0 0.0 0.16328881680965424
                        }
                    }
                }
                JOINT RightShoulder
                {
                    OFFSET -0.1 0.0 0.0
                    CHANNELS 3 Zrotation Xrotation Yrotation
                    JOINT RightArm
                    {
                        OFFSET -0.19263990223407745 0.0 0.0
                        CHANNELS 3 Zrotation Xrotation Yrotation
                        JOINT RightForeArm
                        {
                            OFFSET -0.2706131339073181 0.0 0.0
                            CHANNELS 3 Zrotation Xrotation Yrotation
                            JOINT RightHand
                            {
                                OFFSET -0.26499998569488525 0.0 0.0
                                CHANNELS 3 Zrotation Xrotation Yrotation
                                End Site
                                {
                                    OFFSET -0.1 0.0 0.0
                                }
                            }
                        }
                    }
                }
            }
        }
    }
    JOINT RightHipJoint
    {
        OFFSET -0.1 0.0 0.0
        CHANNELS 3 Zrotation Xrotation Yrotation
        JOINT RightUpLeg
        {
            OFFSET -0.1216195672750473 0.0 0.0
            CHANNELS 3 Zrotation Xrotation Yrotation
            JOINT RightLeg
            {
                OFFSET 0.0 0.0 -0.4275517165660858
                CHANNELS 3 Zrotation Xrotation Yrotation
                JOINT RightFoot
                {
                    OFFSET 0.0 0.0 -0.35221046209335327
                    CHANNELS 3 Zrotation Xrotation Yrotation
                    End Site
                    {
                        OFFSET 0.0 -0.1 0.0
                    }
                }
            }
        }
    }
}
MOTION
Frames: 4
Frame Time: 0.03333333333333333
-0.05182164907455444 -0.15450282394886017 0.002777241403236985 -166.2346133980392 85.5966409835006 -18.851764221176392 0.0 0.0 0.0 0.11047443643253017 -6.127545033915983 1.765098994262693 1.0152882450375056 -8.2318768318183 1.5595773676285314 0.0 0.0 0.0 0.0 0.0 0.0 0.09860438574287607 -4.2857405913877 -0.3473551370039651 -0.5145849092195556 -3.902323832274916e-06 -8.938228006263907e-08 0.0 0.0 3.975693351829397e-16 173.4702271306793 -40.45860300903995 169.92440080871344 -21.898224753357514 9.44459704059806e-07 1.4691659098405908e-06 -8.827812596100317e-32 6.3611093629270335e-15 1.5902773407317584e-15 0.0 0.0 3.975693351829397e-16 -176.52764515379786 14.518900308661136 -3.7656500781265225 0.0 0.0 3.975693351829397e-16 175.71998736206882 -40.77862317251594 174.73826962893713 20.239167908718304 1.580840916858153e-07 -1.8428411832819992e-07 1.5902773407317584e-15 -6.3611093629270335e-15 1.5902773407317584e-15 0.0 0.0 0.0 0.11396460587331304 -6.6661486914460415 -0.5262985737670508 -0.7644975542255473 -7.794542891275774 4.978513055123948 -4.310455369189608e-34 -6.361109362927033e-15 -7.765026077791787e-18
-0.05135844647884369 -0.15005680918693542 0.0026927972212433815 -164.81646617153004 85.74815838439763 -20.2862659277862 -3.975693351829397e-16 1.2722218725854067e-14 7.951386703658792e-16 0.40837193279907624 -6.3490544781059 2.0480446755927453 0.957355940178853 -8.025719229398643 1.2692679425200841 -3.727212517340059e-17 -6.3611093629270335e-15 -2.069018577211012e-33 -3.975693351829397e-16 1.2722218725854067e-14 7.951386703658792e-16 0.109034404430582 -4.542783277219611 -0.07302030388352526 -0.5335037717044828 -1.5130906520491552e-06 -4.191030672889769e-07 3.975693351829395e-16 -6.361109362927032e-15 2.2069531490250793e-32 -176.7555421989186 -42.16529396665204 -176.81719681654317 -21.16482667345323 2.901218978454547e-06 1.012601205907184e-06 -3.1805546814635168e-15 -6.3611093629270335e-15 -1.5902773407317584e-15 3.975693351829395e-16 -6.361109362927032e-15 2.2069531490250793e-32 -177.49258202157552 15.003967566002862 -3.026630665783209 3.975693351829395e-16 -6.361109362927032e-15 2.2069531490250793e-32 167.73049160178635 -37.2113834644251 163.22426381899504 18.67747762189675 5.573066031300864e-07 -4.940581204150594e-07 3.1805546814635168e-15 0.0 0.0 -3.975693351829397e-16 1.2722218725854067e-14 7.951386703658792e-16 -0.16371036689591933 -6.9478565222061155 -0.6458531522878054 -0.7045373152280644 -7.44996145895237 5.106564701100315 2.069018577211012e-33 -6.361109362927035e-15 3.72721251734006e-17
-0.05101851373910904 -0.14361947774887085 0.002535457955673337 -163.35870056171507 85.8490126457014 -21.731323832791986 -3.975693351829396e-16 6.3611093629270335e-15 3.975693351829396e-16 0.7802262632726994 -6.638444889132412 2.375842333707801 0.8692168487670449 -7.647175937158153 0.7422160791382559 2.5158684492045397e-16 -6.361109362927035e-15 -3.975693351829397e-16 -3.975693351829396e-16 6.3611093629270335e-15 3.975693351829396e-16 0.12553483014957828 -4.950124299575694 0.12245324939935284 -0.48603706093786425 -3.015717280404317e-06 -1.1220920543613753e-07 -2.2069531490250793e-32 6.3611093629270335e-15 3.975693351829396e-16 -166.45510255699705 -40.71004067226693 -162.63349288536514 -19.955350967599866 -3.3157662235138784e-06 -2.2206939150672568e-06 0.0 0.0 0.0 -2.2069531490250793e-32 6.3611093629270335e-15 3.975693351829396e-16 -177.53132972195024 15.144247965886859 -2.6693343680272847 -2.2069531490250793e-32 6.3611093629270335e-15 3.975693351829396e-16 161.66233270969508 -32.02894183260857 152.6812265106504 17.26802028628434 -3.7079824303837753e-06 2.205945145471696e-06 2.2069531490250793e-32 -6.3611093629270335e-15 3.975693351829396e-16 -3.975693351829396e-16 6.3611093629270335e-15 3.975693351829396e-16 -0.5042285407922528 -7.286664214658727 -0.5960981521838439 -0.6393370734163485 -6.868122669993822 4.964463823081397 -4.138037154422024e-33 -6.3611093629270335e-15 -7.454425034680117e-17
-0.050538599491119385 -0.13747915625572205 0.0022686647716909647 -162.06172428486465 85.87087029115189 -22.967586844506727 0.0 0.0 -7.951386703658792e-16 1.1246748122917043 -6.82129854690705 2.5819196385334213 0.7892799102085597 -7.341039928420468 0.550596912974744 -4.472655020808071e-16 0.0 0.0 0.0 0.0 -7.951386703658792e-16 0.12519948299258965 -5.1406613106948456 0.2200479502389841 -0.39270260676457314 -3.486576027811699e-08 2.6520351892090585e-08 3.975693351829395e-16 0.0 0.0 -156.73025055585677 -37.596670017177615 -148.56555270974147 -19.268394539909092 4.096002431534089e-06 3.6008872983694604e-07 0.0 0.0 1.9878466759146976e-15 3.975693351829395e-16 0.0 0.0 -178.58077710558698 15.671214313940574 -2.2053562301267973 3.975693351829395e-16 0.0 0.0 157.50477065311182 -26.471568672956828 143.61257248775195 16.048757937735807 -4.022549869849207e-06 -1.8163657446708064e-06 6.361109362927033e-15 -6.361109362927033e-15 -8.945310041616136e-16 0.0 0.0 -7.951386703658792e-16 -0.862931843957106 -7.550831229449745 -0.48079878492248823 -0.6020900622666044 -6.3201451348911375 4.426911355369584 -8.276074308844047e-33 6.3611093629270335e-15 1.4908850069360235e-16
